SplineFontDB: 3.0
FontName: Valley
FullName: Valley
FamilyName: Valley
Weight: Regular
Copyright: Created by trashman with FontForge 2.0 (http://fontforge.sf.net)
UComments: "2010-10-4: Created." 
Version: 001.000
ItalicAngle: 0
UnderlinePosition: -100
UnderlineWidth: 50
Ascent: 730
Descent: 270
LayerCount: 3
Layer: 0 0 "Back"  1
Layer: 1 0 "Fore"  0
Layer: 2 0 "backup"  0
NeedsXUIDChange: 1
XUID: [1021 658 797806517 11561335]
OS2Version: 0
OS2_WeightWidthSlopeOnly: 0
OS2_UseTypoMetrics: 1
CreationTime: 1286180940
ModificationTime: 1286269309
OS2TypoAscent: 0
OS2TypoAOffset: 1
OS2TypoDescent: 0
OS2TypoDOffset: 1
OS2TypoLinegap: 0
OS2WinAscent: 0
OS2WinAOffset: 1
OS2WinDescent: 0
OS2WinDOffset: 1
HheadAscent: 0
HheadAOffset: 1
HheadDescent: 0
HheadDOffset: 1
OS2Vendor: 'PfEd'
MarkAttachClasses: 1
DEI: 91125
Encoding: UnicodeBmp
UnicodeInterp: none
NameList: Adobe Glyph List
DisplaySize: -48
AntiAlias: 1
FitToEm: 1
WinInfo: 44 11 5
BeginPrivate: 6
BlueValues 15 [-23 6 438 470]
BlueScale 9 0.0309375
StdHW 4 [88]
StemSnapH 26 [23 27 31 37 42 77 88 118]
StdVW 4 [88]
StemSnapV 35 [8 33 46 63 73 80 84 88 95 104 118]
EndPrivate
BeginChars: 65536 63

StartChar: a
Encoding: 97 97 0
Width: 504
VWidth: 0
Flags: W
HStem: -12 42<157.309 259.027 425.624 479.909> 222 28<265.168 328> 236 33<175.032 318.993> 434 34<167.281 287.055>
VStem: 18 107<64.0932 190.614> 54 93<336.531 407.63> 328 92<83.229 227.447 250 392.627>
LayerCount: 3
Fore
SplineSet
328 222 m 1xda
 301 229 273 236 238 236 c 0xba
 167 236 125 190 125 126 c 0
 125 79 160 30 207 30 c 0
 275 30 328 92 328 146 c 2
 328 222 l 1xda
420 262 m 2
 420 82 l 2
 420 47 435 28 460 24 c 0
 479 21 479 24 480 8 c 0
 480 5 481 1 481 -1 c 0
 481 -10 470 -12 459 -12 c 0
 443 -12 408 -8 370 2 c 0
 338 10 335 34 330 67 c 1
 330 67 276 -12 172 -12 c 0
 94 -12 18 44 18 120 c 0
 18 215 115 269 210 269 c 0xba
 261 269 329 250 329 250 c 1
 329 306 l 2
 329 396 286 434 236 434 c 0
 232 434 217 434 201 431 c 0
 167 426 154 415 147 384 c 0
 139 350 127 324 92 324 c 0
 71 324 54 336 54 362 c 0xd6
 54 421 158 468 237 468 c 0
 267 468 294 464 317 457 c 0
 390 436 420 387 420 262 c 2
EndSplineSet
EndChar

StartChar: b
Encoding: 98 98 1
Width: 568
VWidth: 0
Flags: W
HStem: -18 35<258.664 380.119> -10 21G<113.5 170.5> 432 32<282.268 381.059> 669 42<17.0196 112.794>
VStem: 104 73<-10 49.8856> 113 97<532.5 669.987> 440 103<112.838 348.659>
LayerCount: 3
Fore
SplineSet
165 -10 m 2x7a
 121 -10 l 2
 106 -10 104 -10 104 0 c 0x7a
 104 87 113 412 113 638 c 0
 113 652 113 670 97 670 c 0
 68 670 52 669 24 669 c 0
 20 669 17 680 17 689 c 0
 17 701 22 711 31 711 c 0
 44 711 128 705 169 705 c 2
 201 705 l 2
 209 705 211 704 211 699 c 0
 211 696 210 691 210 685 c 2
 196 380 l 1
 196 380 256 464 350 464 c 0
 459 464 543 375 543 242 c 0
 543 62 448 -18 325 -18 c 0xb6
 240 -18 206 52 197 52 c 0
 185 52 180 26 177 8 c 0
 175 -9 176 -10 165 -10 c 2x7a
196 216 m 0
 196 170 200 130 211 98 c 0
 229 48 264 17 318 17 c 0xb2
 427 17 440 121 440 238 c 0
 440 326 426 432 324 432 c 0
 265 432 229 389 211 334 c 0
 199 297 196 255 196 216 c 0
EndSplineSet
EndChar

StartChar: c
Encoding: 99 99 2
Width: 468
VWidth: 0
Flags: W
HStem: -18 36<208.687 338.757> 432 35<200.608 313.052>
VStem: 26 104<117.403 322.587>
LayerCount: 3
Fore
SplineSet
413 375 m 0
 413 352 403 331 377 331 c 0
 329 331 333 408 305 423 c 0
 292 430 281 432 265 432 c 0
 163 432 130 338 130 242 c 0
 130 132 162 18 274 18 c 0
 323 18 368 47 394 93 c 0
 398 99 405 131 417 134 c 0
 425 136 439 128 439 119 c 0
 439 110 435 99 430 90 c 0
 390 22 342 -18 258 -18 c 0
 124 -18 26 87 26 221 c 0
 26 366 140 467 262 467 c 0
 317 467 413 438 413 375 c 0
EndSplineSet
EndChar

StartChar: d
Encoding: 100 100 3
Width: 578
VWidth: 0
Flags: W
HStem: -22 37<186.868 296.39 466.792 554.614> 421 35<190.998 299.691> 663 30<295.745 366> 665 37<267.007 332.394>
VStem: 27 105<106.005 320.758> 372 94<364.109 660.122> 376 8<-4 69> 380 80<17.6841 69 108.848 334.471 364 607.369>
LayerCount: 3
Fore
SplineSet
384 69 m 1xea
 384 68 316 -22 225 -22 c 0
 112 -22 27 89 27 204 c 0
 27 331 95 456 236 456 c 0
 324 456 379 364 379 364 c 1
 379 364 374 514 372 612 c 0
 371 642 370 661 333 663 c 0xec
 320 664 311 664 295 665 c 0
 277 666 267 665 267 684 c 0
 267 697 272 702 282 702 c 0xdc
 291 702 294 701 302 700 c 0
 335 695 336 695 366 693 c 0
 371 693 427 691 443 691 c 0
 462 691 466 691 466 670 c 0xec
 466 633 460 367 460 187 c 0xe9
 460 144 460 108 461 84 c 0
 463 33 461 14 514 11 c 0
 545 9 555 11 555 -9 c 0
 555 -24 544 -26 529 -26 c 0
 518 -26 507 -25 498 -24 c 0
 458 -18 420 -15 397 -15 c 0
 380 -15 376 -12 376 -4 c 0
 376 -1 382 48 384 69 c 1xea
132 212 m 0
 132 123 147 15 242 15 c 0
 330 15 380 118 380 214 c 0xc9
 380 311 345 421 243 421 c 0
 151 421 132 304 132 212 c 0
EndSplineSet
EndChar

StartChar: e
Encoding: 101 101 4
Width: 464
VWidth: 0
Flags: W
HStem: -23 36<202.047 332.492> 223 30<127.078 357.998> 426 31<192.875 285.808>
VStem: 24.9342 102.066<116.82 323.794> 358 83<231.5 341.778>
LayerCount: 3
Fore
SplineSet
256 -23 m 0
 127.598436431 -23 24.9341885063 81.1269322948 24.9341885063 221.088104309 c 0
 24.9341885063 356.996992862 123.67077338 457 236 457 c 0
 360 457 441 367 441 236 c 0
 441 227 440 223 425 223 c 2
 141 223 l 2
 129 223 127 224 127 214 c 0
 127 173 130 13 270 13 c 0
 338 13 385 63 408 90 c 0
 419 103 421 106 430 100 c 0
 435 97 437 93 437 90 c 0
 437 85 434 80 429 73 c 0
 408 40 340 -23 256 -23 c 0
138 253 m 2
 347 253 l 2
 355 253 358 256 358 265 c 0
 358 319 321 426 238 426 c 0
 161 426 129 321 126 274 c 0
 126 269 124 265 124 262 c 0
 124 256 127 253 138 253 c 2
EndSplineSet
EndChar

StartChar: f
Encoding: 102 102 6
Width: 365
VWidth: 0
Flags: W
HStem: -8 37<17.0404 122.631 228.815 324.889> 3 31<43.8765 124.72 226.792 302.031> 404 37<25.0051 128 219 348.997> 687 36<235.526 296.584>
VStem: 128 91<36.8651 405 440 636.739> 301 83<596.545 684.724>
LayerCount: 3
Fore
SplineSet
301 647 m 2x7c
 301 670 292 687 265 687 c 0
 246 687 235 673 228 653 c 0
 219 626 219 569 219 463 c 2
 219 440 l 1
 322 440 l 2
 345 440 349 438 349 422 c 0
 349 407 346 404 320 404 c 0
 292 404 277 404 219 405 c 1
 219 80 l 2
 219 27 259 30 303 29 c 0
 317 29 325 26 325 14 c 0
 325 -4 319 -8 305 -8 c 0xbc
 241 -8 219 3 174 3 c 0
 124 3 61 -6 43 -6 c 0
 23 -6 17 -3 17 12 c 0
 17 24 18 30 35 31 c 2
 101 34 l 2
 123 35 128 46 128 80 c 2
 128 405 l 1
 100 405 68 404 42 404 c 0
 32 404 25 407 25 423 c 0
 25 439 31 441 41 441 c 0
 67 441 96 440 128 440 c 9
 128 543 l 2
 128 635 186 723 275 723 c 0
 325 723 384 687 384 638 c 0
 384 609 363 589 337 589 c 0
 317 589 301 606 301 627 c 2
 301 647 l 2x7c
EndSplineSet
EndChar

StartChar: g
Encoding: 103 103 7
Width: 525
VWidth: 0
Flags: W
HStem: -238 27<146.317 312.641> -11 79<133.669 390.127> 131 23<187.002 272.797> 409 39<409.304 479.5> 432 27<187.44 276.631>
VStem: 17 63<-167.114 -64.3101> 20 33<56 141.588> 59 85<222.663 370.167> 324 84<209.989 379.902> 431 47<-144.55 -44.709> 465 59<361.66 408.439>
LayerCount: 3
Fore
SplineSet
20 82 m 0xf280
 20 133 46 159 69 172 c 0
 89 183 108 186 108 186 c 1
 108 186 59 232 59 298 c 0
 59 383 140 459 251 459 c 0xeb80
 302 459 345 422 365 402 c 0
 374 393 372 395 383 405 c 0
 397 418 422 448 462 448 c 0
 497 448 524 429 524 399 c 0
 524 376 508 359 491 359 c 0
 481 359 471 365 465 380 c 0
 460 394 455 409 441 409 c 0
 425 409 410 396 398 384 c 0
 390 376 388 373 388 370 c 0
 388 368 401 342 404 326 c 0
 407 313 408 298 408 286 c 0
 408 204 338 131 242 131 c 0
 184 131 144 154 124 170 c 1
 124 170 107 168 91 161 c 0
 73 153 53 137 53 116 c 0xf3a0
 53 77 93 73 130 70 c 0
 157 68 187 68 217 68 c 2
 224 68 l 2
 254 68 362 67 411 45 c 0
 450 28 478 -9 478 -64 c 0
 478 -201 340 -238 226 -238 c 0
 115 -238 17 -198 17 -114 c 0xf4c0
 17 -71 65 -36 98 -21 c 0
 107 -17 111 -15 111 -13 c 0
 111 -11 104 -9 93 -5 c 0
 64 5 20 30 20 82 c 0xf280
137 -30 m 0
 101 -57 80 -72 80 -112 c 0
 80 -178 151 -211 212 -211 c 0
 302 -211 431 -178 431 -93 c 0xe4c0
 431 -15 321 -11 244 -11 c 2
 202 -11 l 2
 179 -11 160 -13 137 -30 c 0
234 432 m 0xe980
 162 432 144 362 144 296 c 0
 144 224 158 154 228 154 c 0
 305 154 324 226 324 298 c 0
 324 358 302 432 234 432 c 0xe980
EndSplineSet
EndChar

StartChar: h
Encoding: 104 104 8
Width: 624
VWidth: 0
Flags: W
HStem: -6 35<17.351 105.391 206.762 278.837 347.006 432.901 529.588 609.947> 421 39<322.602 419.463> 666 40<17.0581 109.92> 666 32<31.3782 108.625>
VStem: 112 90<33.1514 321.852 338 591.162> 116 94<255.094 692> 436 90<31.9963 407.484>
LayerCount: 3
Fore
SplineSet
596 28 m 2xd6
 603 28 610 27 610 20 c 2
 610 9 l 2
 610 -4 602 -5 584 -5 c 0
 549 -5 521 4 480 4 c 0
 432 4 399 -6 356 -6 c 0
 349 -6 347 -3 347 12 c 0
 347 29 355 29 376 29 c 0
 410 29 436 29 436 63 c 2
 436 344 l 2
 436 389 419 421 376 421 c 0
 342 421 301 396 277 378 c 0
 231 344 202 298 202 255 c 2
 202 64 l 2
 202 34 228 28 249 26 c 0
 266 24 279 30 279 8 c 0
 279 -4 273 -6 255 -6 c 0
 223 -6 154 3 152 3 c 0
 114 3 83 -3 50 -3 c 0
 43 -3 36 -3 28 -2 c 0
 22 -1 17 7 17 15 c 0
 17 22 19 29 26 29 c 0
 34 29 42 29 50 29 c 0
 86 29 111 30 112 70 c 0xda
 115 285 116 406 116 618 c 0
 116 640 107 666 84 666 c 2
 28 666 l 2
 20 666 17 675 17 684 c 0
 17 695 22 706 30 706 c 0xe6
 59 706 114 698 138 698 c 0
 157 698 172 700 190 700 c 2
 203 700 l 2
 206 700 210 694 210 690 c 0
 207 551 198 338 198 338 c 1
 198 338 275 460 416 460 c 0
 473 460 526 435 526 366 c 2
 526 60 l 2
 526 30 558 28 581 28 c 2
 596 28 l 2xd6
EndSplineSet
EndChar

StartChar: i
Encoding: 105 105 9
Width: 300
VWidth: 0
Flags: W
HStem: -6 31<17.0559 105.643 215.376 288.934> 411 34<12.0015 111.625> 411 27<21.3963 109.381> 570 118<110.339 201.661>
VStem: 97 118<583.339 674.661> 120 91<34.7518 407.926>
LayerCount: 3
Fore
SplineSet
97 629 m 0x98
 97 662 123 688 156 688 c 0
 189 688 215 662 215 629 c 0
 215 596 189 570 156 570 c 0
 123 570 97 596 97 629 c 0x98
208 62 m 2
 208 34 229 28 249 26 c 0
 266 24 289 30 289 8 c 0
 289 -4 283 -6 265 -6 c 0
 233 -6 166 4 164 4 c 0
 123 4 80 -6 41 -6 c 2
 28 -6 l 2
 21 -6 17 3 17 11 c 0
 17 18 20 25 28 25 c 0
 80 27 118 27 118 70 c 0
 120 282 120 150 120 362 c 0
 120 384 109 411 86 411 c 2
 22 411 l 2
 14 411 12 418 12 427 c 0
 12 438 12 445 20 445 c 0xd4
 49 445 129 438 153 438 c 0
 172 438 172 439 190 439 c 2
 203 439 l 2
 206 439 211 433 211 429 c 0xb4
 208 306 208 263 208 195 c 2
 208 62 l 2
EndSplineSet
EndChar

StartChar: j
Encoding: 106 106 10
Width: 316
VWidth: 0
Flags: W
HStem: -234 54<23.7833 89.926> 411 35<12.0015 125.712> 411 27<21.7944 123.035> 572 118<129.339 220.661>
VStem: 116 118<585.339 676.661> 141 92<-110.952 401.435>
LayerCount: 3
Fore
SplineSet
116 631 m 0x98
 116 664 142 690 175 690 c 0
 208 690 234 664 234 631 c 0
 234 598 208 572 175 572 c 0
 142 572 116 598 116 631 c 0x98
141 360 m 0xb4
 141 382 120 411 94 411 c 2
 22 411 l 2
 14 411 12 418 12 427 c 0
 12 438 12 446 20 446 c 0xd4
 58 446 114 438 170 438 c 0
 199 438 203 440 225 440 c 0
 232 440 233 433 233 429 c 0
 232 375 231 337 231 305 c 2
 230 -6 l 2
 230 -47 228 -85 204 -124 c 8
 162 -192 44 -234 31 -234 c 0
 23 -234 14 -223 16 -211 c 0
 18 -200 50 -189 66 -180 c 0
 103 -160 142 -122 142 -59 c 0
 142 80 141 218 141 360 c 0xb4
EndSplineSet
EndChar

StartChar: k
Encoding: 107 107 11
Width: 542
VWidth: 0
Flags: W
HStem: -3 29<11.0549 90.6504 198.404 268.963 302.009 354.174 471.241 527.991> 222 20<192.722 227.249> 408 30<382.375 480.59> 411 34<252.311 324.617 383.969 502.821> 670 34<16.0728 97.803>
VStem: 103 87<44.282 221.487 432.773 662.527>
DStem2: 300 259 247 206 0.601905 -0.798567<-17.1189 200.982>
LayerCount: 3
Fore
SplineSet
362 438 m 0xec
 417 438 452 445 482 445 c 0
 497 445 502 445 503 426 c 0
 504 411 496 412 482 411 c 0xdc
 462 410 449 408 427 408 c 0
 410 408 393 403 376 388 c 0
 342 358 321 324 301 295 c 0
 295 286 293 281 293 276 c 0
 293 271 294 267 300 259 c 0
 327 222 394 131 452 60 c 0
 473 35 486 22 520 22 c 0
 526 22 528 17 528 11 c 0
 528 3 525 -6 519 -6 c 0
 473 -6 450 2 404 2 c 0
 365 2 348 -3 311 -3 c 0
 305 -3 302 3 302 11 c 0
 302 19 305 26 311 26 c 0
 320 26 326 27 333 27 c 0
 349 28 357 39 357 50 c 0
 357 56 354 64 348 72 c 2
 247 206 l 2
 238 218 232 222 222 222 c 0
 198 222 190 215 190 201 c 2
 190 84 l 2
 190 42 193 36 224 30 c 0
 234 28 246 28 262 26 c 0
 267 25 269 17 269 10 c 0
 269 4 264 -2 259 -2 c 0
 210 -2 193 6 144 6 c 0
 94 6 50 -2 19 -2 c 0
 14 -2 11 6 11 13 c 0
 11 20 14 28 20 28 c 0
 33 29 41 29 54 30 c 0
 71 31 88 37 97 44 c 0
 104 50 103 57 103 69 c 2
 109 621 l 2
 109 637 109 653 98 663 c 0
 94 667 77 669 65 670 c 0
 53 671 42 672 26 672 c 0
 20 672 16 674 16 685 c 0
 16 694 20 704 27 704 c 0
 49 704 112 697 142 697 c 0
 162 697 171 698 189 698 c 0
 194 698 195 691 195 686 c 0
 193 525 186 273 186 252 c 0
 186 245 187 242 193 242 c 0
 224 242 241 262 253 276 c 0
 269 295 300 338 321 371 c 0
 325 378 327 390 325 395 c 0
 317 414 298 415 280 416 c 2
 264 417 l 2
 251 417 251 423 252 430 c 0
 253 438 252 445 264 444 c 0
 294 441 330 438 362 438 c 0xec
EndSplineSet
EndChar

StartChar: l
Encoding: 108 108 12
Width: 326
VWidth: 0
Flags: HW
HStem: -7 37<15.0564 109.57 211.107 306.585> 670 39<16.2892 107.528>
VStem: 113 95<33.2014 662.715>
LayerCount: 3
Fore
SplineSet
208 201 m 2
 208 79 l 2
 208 35 216 29 257 27 c 1
 286 27 l 2
 300 27 307 24 307 5 c 0
 307 -1 300 -8 288 -8 c 0
 239 -8 203 6 154 6 c 0
 117 6 56 -7 26 -7 c 0
 18 -7 15 6 15 13 c 0
 15 20 18 30 27 30 c 2
 60 30 l 2
 87 30 113 33 113 58 c 2
 118 634 l 2
 118 646 117 657 108 663 c 0
 98 669 84 670 71 670 c 2
 26 670 l 2
 20 670 16 674 16 685 c 0
 16 694 20 709 27 709 c 0
 54 709 130 702 162 702 c 0
 179 702 197 703 212 703 c 0
 217 703 218 696 218 691 c 0
 218 675 214 603 213 552 c 0
 211 396 208 217 208 201 c 2
EndSplineSet
EndChar

StartChar: m
Encoding: 109 109 13
Width: 176
VWidth: 0
Flags: HWO
HStem: 185 88<50.4399 125.56>
VStem: 44 88<191.44 266.56>
LayerCount: 3
Fore
SplineSet
44 229 m 4
 44 253 64 273 88 273 c 4
 112 273 132 253 132 229 c 4
 132 205 112 185 88 185 c 4
 64 185 44 205 44 229 c 4
EndSplineSet
EndChar

StartChar: n
Encoding: 110 110 14
Width: 176
VWidth: 0
Flags: W
HStem: 185 88<50.4399 125.56>
VStem: 44 88<191.44 266.56>
LayerCount: 3
Fore
SplineSet
44 229 m 4
 44 253 64 273 88 273 c 4
 112 273 132 253 132 229 c 4
 132 205 112 185 88 185 c 4
 64 185 44 205 44 229 c 4
EndSplineSet
EndChar

StartChar: o
Encoding: 111 111 15
Width: 176
VWidth: 0
Flags: W
HStem: 185 88<50.4399 125.56>
VStem: 44 88<191.44 266.56>
LayerCount: 3
Fore
SplineSet
44 229 m 4
 44 253 64 273 88 273 c 4
 112 273 132 253 132 229 c 4
 132 205 112 185 88 185 c 4
 64 185 44 205 44 229 c 4
EndSplineSet
EndChar

StartChar: p
Encoding: 112 112 16
Width: 176
VWidth: 0
Flags: W
HStem: 185 88<50.4399 125.56>
VStem: 44 88<191.44 266.56>
LayerCount: 3
Fore
SplineSet
44 229 m 4
 44 253 64 273 88 273 c 4
 112 273 132 253 132 229 c 4
 132 205 112 185 88 185 c 4
 64 185 44 205 44 229 c 4
EndSplineSet
EndChar

StartChar: q
Encoding: 113 113 17
Width: 176
VWidth: 0
Flags: W
HStem: 185 88<50.4399 125.56>
VStem: 44 88<191.44 266.56>
LayerCount: 3
Fore
SplineSet
44 229 m 4
 44 253 64 273 88 273 c 4
 112 273 132 253 132 229 c 4
 132 205 112 185 88 185 c 4
 64 185 44 205 44 229 c 4
EndSplineSet
EndChar

StartChar: r
Encoding: 114 114 18
Width: 176
VWidth: 0
Flags: W
HStem: 185 88<50.4399 125.56>
VStem: 44 88<191.44 266.56>
LayerCount: 3
Fore
SplineSet
44 229 m 4
 44 253 64 273 88 273 c 4
 112 273 132 253 132 229 c 4
 132 205 112 185 88 185 c 4
 64 185 44 205 44 229 c 4
EndSplineSet
EndChar

StartChar: s
Encoding: 115 115 19
Width: 176
VWidth: 0
Flags: W
HStem: 185 88<50.4399 125.56>
VStem: 44 88<191.44 266.56>
LayerCount: 3
Fore
SplineSet
44 229 m 4
 44 253 64 273 88 273 c 4
 112 273 132 253 132 229 c 4
 132 205 112 185 88 185 c 4
 64 185 44 205 44 229 c 4
EndSplineSet
EndChar

StartChar: t
Encoding: 116 116 20
Width: 176
VWidth: 0
Flags: W
HStem: 185 88<50.4399 125.56>
VStem: 44 88<191.44 266.56>
LayerCount: 3
Fore
SplineSet
44 229 m 4
 44 253 64 273 88 273 c 4
 112 273 132 253 132 229 c 4
 132 205 112 185 88 185 c 4
 64 185 44 205 44 229 c 4
EndSplineSet
EndChar

StartChar: u
Encoding: 117 117 21
Width: 176
VWidth: 0
Flags: W
HStem: 185 88<50.4399 125.56>
VStem: 44 88<191.44 266.56>
LayerCount: 3
Fore
SplineSet
44 229 m 4
 44 253 64 273 88 273 c 4
 112 273 132 253 132 229 c 4
 132 205 112 185 88 185 c 4
 64 185 44 205 44 229 c 4
EndSplineSet
EndChar

StartChar: v
Encoding: 118 118 22
Width: 176
VWidth: 0
Flags: W
HStem: 185 88<50.4399 125.56>
VStem: 44 88<191.44 266.56>
LayerCount: 3
Fore
SplineSet
44 229 m 4
 44 253 64 273 88 273 c 4
 112 273 132 253 132 229 c 4
 132 205 112 185 88 185 c 4
 64 185 44 205 44 229 c 4
EndSplineSet
EndChar

StartChar: w
Encoding: 119 119 23
Width: 176
VWidth: 0
Flags: W
HStem: 185 88<50.4399 125.56>
VStem: 44 88<191.44 266.56>
LayerCount: 3
Fore
SplineSet
44 229 m 4
 44 253 64 273 88 273 c 4
 112 273 132 253 132 229 c 4
 132 205 112 185 88 185 c 4
 64 185 44 205 44 229 c 4
EndSplineSet
EndChar

StartChar: x
Encoding: 120 120 24
Width: 176
VWidth: 0
Flags: W
HStem: 185 88<50.4399 125.56>
VStem: 44 88<191.44 266.56>
LayerCount: 3
Fore
SplineSet
44 229 m 4
 44 253 64 273 88 273 c 4
 112 273 132 253 132 229 c 4
 132 205 112 185 88 185 c 4
 64 185 44 205 44 229 c 4
EndSplineSet
EndChar

StartChar: y
Encoding: 121 121 25
Width: 176
VWidth: 0
Flags: W
HStem: 185 88<50.4399 125.56>
VStem: 44 88<191.44 266.56>
LayerCount: 3
Fore
SplineSet
44 229 m 4
 44 253 64 273 88 273 c 4
 112 273 132 253 132 229 c 4
 132 205 112 185 88 185 c 4
 64 185 44 205 44 229 c 4
EndSplineSet
EndChar

StartChar: z
Encoding: 122 122 26
Width: 176
VWidth: 0
Flags: W
HStem: 185 88<50.4399 125.56>
VStem: 44 88<191.44 266.56>
LayerCount: 3
Fore
SplineSet
44 229 m 4
 44 253 64 273 88 273 c 4
 112 273 132 253 132 229 c 4
 132 205 112 185 88 185 c 4
 64 185 44 205 44 229 c 4
EndSplineSet
EndChar

StartChar: zero
Encoding: 48 48 53
Width: 176
VWidth: 0
Flags: W
HStem: 185 88<50.4399 125.56>
VStem: 44 88<191.44 266.56>
LayerCount: 3
Fore
SplineSet
44 229 m 0
 44 253 64 273 88 273 c 0
 112 273 132 253 132 229 c 0
 132 205 112 185 88 185 c 0
 64 185 44 205 44 229 c 0
EndSplineSet
EndChar

StartChar: one
Encoding: 49 49 54
Width: 176
VWidth: 0
Flags: W
HStem: 185 88<50.4399 125.56>
VStem: 44 88<191.44 266.56>
LayerCount: 3
Fore
SplineSet
44 229 m 0
 44 253 64 273 88 273 c 0
 112 273 132 253 132 229 c 0
 132 205 112 185 88 185 c 0
 64 185 44 205 44 229 c 0
EndSplineSet
EndChar

StartChar: two
Encoding: 50 50 55
Width: 176
VWidth: 0
Flags: W
HStem: 185 88<50.4399 125.56>
VStem: 44 88<191.44 266.56>
LayerCount: 3
Fore
SplineSet
44 229 m 0
 44 253 64 273 88 273 c 0
 112 273 132 253 132 229 c 0
 132 205 112 185 88 185 c 0
 64 185 44 205 44 229 c 0
EndSplineSet
EndChar

StartChar: three
Encoding: 51 51 56
Width: 176
VWidth: 0
Flags: W
HStem: 185 88<50.4399 125.56>
VStem: 44 88<191.44 266.56>
LayerCount: 3
Fore
SplineSet
44 229 m 0
 44 253 64 273 88 273 c 0
 112 273 132 253 132 229 c 0
 132 205 112 185 88 185 c 0
 64 185 44 205 44 229 c 0
EndSplineSet
EndChar

StartChar: four
Encoding: 52 52 57
Width: 176
VWidth: 0
Flags: W
HStem: 185 88<50.4399 125.56>
VStem: 44 88<191.44 266.56>
LayerCount: 3
Fore
SplineSet
44 229 m 0
 44 253 64 273 88 273 c 0
 112 273 132 253 132 229 c 0
 132 205 112 185 88 185 c 0
 64 185 44 205 44 229 c 0
EndSplineSet
EndChar

StartChar: five
Encoding: 53 53 58
Width: 176
VWidth: 0
Flags: W
HStem: 185 88<50.4399 125.56>
VStem: 44 88<191.44 266.56>
LayerCount: 3
Fore
SplineSet
44 229 m 0
 44 253 64 273 88 273 c 0
 112 273 132 253 132 229 c 0
 132 205 112 185 88 185 c 0
 64 185 44 205 44 229 c 0
EndSplineSet
EndChar

StartChar: six
Encoding: 54 54 59
Width: 176
VWidth: 0
Flags: W
HStem: 185 88<50.4399 125.56>
VStem: 44 88<191.44 266.56>
LayerCount: 3
Fore
SplineSet
44 229 m 0
 44 253 64 273 88 273 c 0
 112 273 132 253 132 229 c 0
 132 205 112 185 88 185 c 0
 64 185 44 205 44 229 c 0
EndSplineSet
EndChar

StartChar: seven
Encoding: 55 55 60
Width: 176
VWidth: 0
Flags: W
HStem: 185 88<50.4399 125.56>
VStem: 44 88<191.44 266.56>
LayerCount: 3
Fore
SplineSet
44 229 m 0
 44 253 64 273 88 273 c 0
 112 273 132 253 132 229 c 0
 132 205 112 185 88 185 c 0
 64 185 44 205 44 229 c 0
EndSplineSet
EndChar

StartChar: eight
Encoding: 56 56 61
Width: 176
VWidth: 0
Flags: W
HStem: 185 88<50.4399 125.56>
VStem: 44 88<191.44 266.56>
LayerCount: 3
Fore
SplineSet
44 229 m 0
 44 253 64 273 88 273 c 0
 112 273 132 253 132 229 c 0
 132 205 112 185 88 185 c 0
 64 185 44 205 44 229 c 0
EndSplineSet
EndChar

StartChar: nine
Encoding: 57 57 62
Width: 176
VWidth: 0
Flags: W
HStem: 185 88<50.4399 125.56>
VStem: 44 88<191.44 266.56>
LayerCount: 3
Fore
SplineSet
44 229 m 0
 44 253 64 273 88 273 c 0
 112 273 132 253 132 229 c 0
 132 205 112 185 88 185 c 0
 64 185 44 205 44 229 c 0
EndSplineSet
EndChar
